<svg version="1.0" xmlns="http://www.w3.org/2000/svg" width="1920.000000pt" height="1920.000000pt" viewBox="0 0 1920.000000 1920.000000" preserveAspectRatio="xMidYMid meet">
<g transform="translate(0.000000,1920.000000) scale(0.100000,-0.100000)" fill="#FFFFFF" stroke="none">
<path d="M5150 15551 c-36 -16 -193 -81 -350 -146 -157 -65 -287 -119 -289 -121 -2 -2 20 -126 48 -275 31 -155 55 -312 58 -368 15 -283 -100 -586 -302 -800 -223 -236 -544 -366 -860 -348 -55 3 -219 29 -364 57 -145 27 -265 49 -267 48 -1 -2 -34 -79 -72 -173 -38 -93 -99 -241 -136 -327 -36 -86 -66 -163 -66 -170 1 -7 96 -80 212 -163 117 -82 243 -179 282 -215 143 -134 261 -333 312 -525 22 -82 28 -130 31 -262 8 -245 -21 -393 -113 -575 -100 -200 -202 -306 -502 -520 -193 -138 -223 -163 -218 -182 12 -44 275 -671 284 -674 5 -1 101 15 213 37 250 49 344 57 474 41 182 -22 356 -86 508 -187 92 -61 253 -216 329 -317 152 -201 241 -489 225 -725 -4 -46 -23 -180 -43 -298 -20 -117 -34 -216 -31 -219 5 -6 598 -253 660 -276 15 -6 29 -9 31 -7 2 2 57 76 123 164 179 238 290 339 481 434 170 86 311 111 610 111 296 0 437 -27 620 -119 163 -82 266 -175 481 -434 63 -75 117 -137 120 -137 3 0 152 61 331 135 298 123 325 136 323 157 0 13 -13 98 -27 189 -14 91 -26 206 -26 256 0 237 80 475 223 665 73 96 345 363 426 417 89 61 252 136 346 161 163 42 259 46 510 21 125 -13 228 -21 230 -19 12 12 264 631 260 638 -3 5 -76 64 -163 131 -186 147 -273 233 -349 347 -137 206 -192 415 -193 733 0 259 31 422 115 597 92 193 185 297 440 498 99 78 149 123 148 135 -2 13 -250 618 -257 626 -1 2 -99 -10 -217 -26 -296 -40 -350 -44 -459 -31 -189 21 -357 80 -503 177 -92 60 -292 255 -369 357 -116 155 -187 345 -208 554 -13 125 -5 214 45 467 19 99 35 187 35 196 0 10 -37 30 -112 61 -62 26 -228 94 -368 152 -140 58 -258 102 -261 98 -4 -4 -72 -106 -152 -227 -154 -234 -220 -312 -348 -407 -199 -150 -407 -218 -664 -218 -217 0 -398 49 -569 153 -191 116 -273 205 -475 516 -68 105 -126 191 -130 190 -3 0 -35 -13 -71 -28z m1491 -1842 c707 -72 1324 -493 1639 -1119 136 -271 207 -547 217 -851 12 -352 -50 -647 -202 -965 -268 -561 -781 -972 -1385 -1110 -928 -213 -1875 233 -2298 1081 -151 304 -214 571 -215 910 -1 356 65 634 223 943 382 750 1194 1196 2021 1111z"/>
<path d="M11505 10959 c-66 -28 -219 -91 -340 -141 -121 -50 -223 -94 -227 -97 -4 -3 16 -121 44 -261 49 -245 51 -262 52 -425 1 -156 -2 -178 -27 -268 -58 -209 -147 -367 -285 -506 -130 -131 -264 -216 -428 -272 -223 -76 -404 -77 -769 -6 -126 25 -240 47 -253 49 -22 3 -32 -19 -156 -317 -73 -176 -136 -329 -139 -340 -5 -17 26 -43 206 -170 247 -175 363 -283 455 -422 261 -400 236 -974 -59 -1349 -79 -101 -174 -181 -397 -339 -179 -127 -210 -153 -205 -170 3 -11 67 -167 142 -347 113 -274 139 -328 155 -328 11 0 101 17 200 37 170 35 192 38 361 37 153 0 192 -3 260 -21 236 -65 403 -167 589 -364 212 -223 312 -455 323 -749 4 -125 2 -152 -36 -370 -22 -129 -37 -237 -33 -241 4 -4 93 -41 197 -84 105 -43 253 -104 329 -136 76 -33 145 -59 152 -59 7 0 62 64 120 142 59 79 130 169 158 202 74 87 214 190 341 251 194 95 351 121 674 112 272 -7 408 -39 581 -134 148 -81 242 -167 445 -408 65 -77 123 -141 130 -143 7 -2 108 37 226 86 118 49 262 109 321 133 71 29 108 49 108 59 0 9 -11 83 -24 165 -35 211 -40 286 -27 395 23 189 83 360 176 501 62 94 365 403 460 468 260 179 502 230 888 187 160 -18 217 -20 217 -6 0 5 57 145 126 311 69 165 123 306 121 313 -3 7 -76 69 -164 137 -87 68 -186 152 -219 187 -126 128 -232 316 -281 497 -27 98 -27 105 -27 395 0 288 0 297 26 393 51 186 157 373 285 502 36 36 135 120 220 187 85 67 157 127 160 134 2 7 -52 148 -121 313 -69 166 -126 306 -126 311 0 15 -53 12 -246 -15 -322 -46 -450 -44 -642 11 -196 55 -356 158 -538 345 -154 159 -227 273 -287 450 -72 208 -74 403 -8 723 23 110 38 203 34 206 -5 4 -136 60 -293 125 -157 64 -316 130 -355 146 -38 16 -75 29 -81 29 -6 0 -76 -97 -154 -216 -152 -231 -241 -336 -359 -423 -446 -330 -1064 -281 -1456 115 -60 60 -116 137 -225 302 -86 131 -151 222 -160 221 -8 0 -69 -23 -135 -50z m1510 -1809 c219 -17 410 -61 612 -139 467 -182 864 -549 1088 -1006 157 -320 230 -690 205 -1039 -46 -646 -378 -1218 -917 -1578 -125 -84 -341 -189 -485 -236 -218 -71 -416 -102 -650 -102 -550 0 -1060 211 -1448 600 -491 491 -696 1176 -559 1870 78 390 296 784 590 1065 380 361 849 553 1399 573 25 1 99 -3 165 -8z"/>
</g>
</svg>
