<svg width="60" height="60" viewBox="0 0 60 60" fill="none" xmlns="http://www.w3.org/2000/svg">
<path d="M21.791 60L20.597 50.4C19.9502 50.15 19.3408 49.85 18.7687 49.5C18.1965 49.15 17.6368 48.775 17.0896 48.375L8.20895 52.125L0 37.875L7.68657 32.025C7.63682 31.675 7.61194 31.3375 7.61194 31.0125V28.9875C7.61194 28.6625 7.63682 28.325 7.68657 27.975L0 22.125L8.20895 7.875L17.0896 11.625C17.6368 11.225 18.209 10.85 18.806 10.5C19.403 10.15 20 9.85 20.597 9.6L21.791 0H38.209L39.403 9.6C40.0498 9.85 40.6592 10.15 41.2313 10.5C41.8035 10.85 42.3632 11.225 42.9104 11.625L51.791 7.875L60 22.125L52.3134 27.975C52.3632 28.325 52.3881 28.6625 52.3881 28.9875V31.0125C52.3881 31.3375 52.3383 31.675 52.2388 32.025L59.9254 37.875L51.7164 52.125L42.9104 48.375C42.3632 48.775 41.791 49.15 41.194 49.5C40.597 49.85 40 50.15 39.403 50.4L38.209 60H21.791ZM27.0149 54H32.9104L33.9552 46.05C35.4975 45.65 36.9279 45.0625 38.2463 44.2875C39.5647 43.5125 40.7711 42.575 41.8657 41.475L49.2537 44.55L52.1642 39.45L45.7463 34.575C45.995 33.875 46.1692 33.1375 46.2687 32.3625C46.3682 31.5875 46.4179 30.8 46.4179 30C46.4179 29.2 46.3682 28.4125 46.2687 27.6375C46.1692 26.8625 45.995 26.125 45.7463 25.425L52.1642 20.55L49.2537 15.45L41.8657 18.6C40.7711 17.45 39.5647 16.4875 38.2463 15.7125C36.9279 14.9375 35.4975 14.35 33.9552 13.95L32.9851 6H27.0896L26.0448 13.95C24.5025 14.35 23.0721 14.9375 21.7537 15.7125C20.4353 16.4875 19.2289 17.425 18.1343 18.525L10.7463 15.45L7.83582 20.55L14.2537 25.35C14.005 26.1 13.8308 26.85 13.7313 27.6C13.6318 28.35 13.5821 29.15 13.5821 30C13.5821 30.8 13.6318 31.575 13.7313 32.325C13.8308 33.075 14.005 33.825 14.2537 34.575L7.83582 39.45L10.7463 44.55L18.1343 41.4C19.2289 42.55 20.4353 43.5125 21.7537 44.2875C23.0721 45.0625 24.5025 45.65 26.0448 46.05L27.0149 54ZM30.1493 40.5C33.0348 40.5 35.4975 39.475 37.5373 37.425C39.5771 35.375 40.597 32.9 40.597 30C40.597 27.1 39.5771 24.625 37.5373 22.575C35.4975 20.525 33.0348 19.5 30.1493 19.5C27.2139 19.5 24.7388 20.525 22.7239 22.575C20.709 24.625 19.7015 27.1 19.7015 30C19.7015 32.9 20.709 35.375 22.7239 37.425C24.7388 39.475 27.2139 40.5 30.1493 40.5Z" fill="white"/>
</svg>
