<svg width="60" height="60" viewBox="0 0 60 60" fill="none" xmlns="http://www.w3.org/2000/svg">
<path d="M0 40V33C0 31.5833 0.364583 30.2812 1.09375 29.0938C1.82292 27.9062 2.79167 27 4 26.375C6.58333 25.0833 9.20833 24.1146 11.875 23.4688C14.5417 22.8229 17.25 22.5 20 22.5C22.75 22.5 25.4583 22.8229 28.125 23.4688C30.7917 24.1146 33.4167 25.0833 36 26.375C37.2083 27 38.1771 27.9062 38.9062 29.0938C39.6354 30.2812 40 31.5833 40 33V40H0ZM45 40V32.5C45 30.6667 44.4896 28.9062 43.4688 27.2188C42.4479 25.5312 41 24.0833 39.125 22.875C41.25 23.125 43.25 23.5521 45.125 24.1562C47 24.7604 48.75 25.5 50.375 26.375C51.875 27.2083 53.0208 28.1354 53.8125 29.1562C54.6042 30.1771 55 31.2917 55 32.5V40H45ZM20 20C17.25 20 14.8958 19.0208 12.9375 17.0625C10.9792 15.1042 10 12.75 10 10C10 7.25 10.9792 4.89583 12.9375 2.9375C14.8958 0.979167 17.25 0 20 0C22.75 0 25.1042 0.979167 27.0625 2.9375C29.0208 4.89583 30 7.25 30 10C30 12.75 29.0208 15.1042 27.0625 17.0625C25.1042 19.0208 22.75 20 20 20ZM45 10C45 12.75 44.0208 15.1042 42.0625 17.0625C40.1042 19.0208 37.75 20 35 20C34.5417 20 33.9583 19.9479 33.25 19.8438C32.5417 19.7396 31.9583 19.625 31.5 19.5C32.625 18.1667 33.4896 16.6875 34.0938 15.0625C34.6979 13.4375 35 11.75 35 10C35 8.25 34.6979 6.5625 34.0938 4.9375C33.4896 3.3125 32.625 1.83333 31.5 0.5C32.0833 0.291667 32.6667 0.15625 33.25 0.09375C33.8333 0.03125 34.4167 0 35 0C37.75 0 40.1042 0.979167 42.0625 2.9375C44.0208 4.89583 45 7.25 45 10ZM5 35H35V33C35 32.5417 34.8854 32.125 34.6562 31.75C34.4271 31.375 34.125 31.0833 33.75 30.875C31.5 29.75 29.2292 28.9062 26.9375 28.3438C24.6458 27.7812 22.3333 27.5 20 27.5C17.6667 27.5 15.3542 27.7812 13.0625 28.3438C10.7708 28.9062 8.5 29.75 6.25 30.875C5.875 31.0833 5.57292 31.375 5.34375 31.75C5.11458 32.125 5 32.5417 5 33V35ZM20 15C21.375 15 22.5521 14.5104 23.5312 13.5312C24.5104 12.5521 25 11.375 25 10C25 8.625 24.5104 7.44792 23.5312 6.46875C22.5521 5.48958 21.375 5 20 5C18.625 5 17.4479 5.48958 16.4688 6.46875C15.4896 7.44792 15 8.625 15 10C15 11.375 15.4896 12.5521 16.4688 13.5312C17.4479 14.5104 18.625 15 20 15Z" fill="white"/>
</svg>
