<svg width="60" height="60" viewBox="0 0 60 60" fill="none" xmlns="http://www.w3.org/2000/svg">
<path d="M27.5 12.2105C25.8194 12.2105 24.3808 11.6127 23.184 10.4171C21.9873 9.22149 21.3889 7.78421 21.3889 6.10526C21.3889 4.42632 21.9873 2.98904 23.184 1.79342C24.3808 0.597807 25.8194 0 27.5 0C29.1806 0 30.6192 0.597807 31.816 1.79342C33.0127 2.98904 33.6111 4.42632 33.6111 6.10526C33.6111 7.78421 33.0127 9.22149 31.816 10.4171C30.6192 11.6127 29.1806 12.2105 27.5 12.2105ZM18.3333 58V21.3684C15.2778 21.114 12.1713 20.7325 9.01389 20.2237C5.85648 19.7149 2.85185 19.0789 0 18.3158L1.52778 12.2105C5.5 13.2789 9.72685 14.0548 14.2083 14.5382C18.6898 15.0215 23.1204 15.2632 27.5 15.2632C31.8796 15.2632 36.3102 15.0215 40.7917 14.5382C45.2731 14.0548 49.5 13.2789 53.4722 12.2105L55 18.3158C52.1481 19.0789 49.1435 19.7149 45.9861 20.2237C42.8287 20.7325 39.7222 21.114 36.6667 21.3684V58H30.5556V39.6842H24.4444V58H18.3333Z" fill="white"/>
</svg>
