<svg version="1.0" xmlns="http://www.w3.org/2000/svg" width="1920.000000pt" height="1920.000000pt" viewBox="0 0 1920.000000 1920.000000" preserveAspectRatio="xMidYMid meet">
    <g transform="translate(0.000000,1920.000000) scale(0.100000,-0.100000)" fill="#FFFFFF" stroke="none">
        <path d="M10820 16890 c-647 -54 -1247 -368 -1643 -860 -160 -199 -326 -496 -397 -710 -162 -489 -169 -939 -23 -1393 73 -228 164 -423 475 -1012 186 -352 392 -743 488 -925 407 -774 514 -977 600 -1140 54 -102 162 -306 240 -455 78 -148 191 -362 250 -475 60 -113 110 -210 112 -216 2 -6 -37 -56 -86 -112 -132 -151 -127 -131 -48 -194 93 -75 90 -74 115 -41 12 15 54 64 94 109 l72 81 -27 26 -26 27 59 112 c32 62 66 126 76 141 l17 28 57 -65 57 -65 87 72 c47 40 99 81 115 93 l29 21 -59 79 c-32 43 -59 81 -61 83 -1 2 -43 -28 -93 -68 -49 -39 -90 -69 -90 -66 0 3 40 81 89 173 49 92 202 383 341 647 139 264 296 563 350 665 142 269 366 694 490 930 59 113 170 322 245 465 432 815 533 1054 597 1415 20 116 17 506 -5 649 -38 239 -101 437 -216 676 -335 694 -1012 1182 -1786 1290 -129 18 -374 26 -495 15z m356 -1341 c136 -24 293 -91 412 -176 446 -318 554 -945 241 -1399 -103 -149 -284 -294 -455 -363 -140 -57 -194 -66 -384 -65 -161 0 -182 3 -265 28 -173 53 -316 137 -441 261 -120 119 -194 237 -247 397 -40 119 -51 192 -50 333 1 106 5 148 27 230 89 341 338 608 670 720 41 14 98 29 128 34 76 12 294 13 364 0z"/>
        <path d="M12736 12388 c-68 -128 -91 -177 -85 -181 2 -2 365 -75 807 -162 l802 -159 26 -86 c14 -47 79 -258 144 -470 187 -611 192 -629 188 -660 -3 -20 0 -30 11 -33 11 -3 32 -56 64 -163 57 -190 300 -983 437 -1429 54 -176 158 -513 230 -750 278 -909 395 -1291 486 -1584 52 -168 92 -306 90 -309 -3 -2 -422 39 -933 92 -510 53 -1151 118 -1423 146 -272 27 -544 55 -603 61 l-108 12 -27 -25 c-15 -14 -546 -492 -1180 -1062 l-1153 -1038 -37 6 c-20 4 -392 42 -827 86 -434 44 -1091 111 -1460 150 -368 38 -706 72 -750 76 l-81 7 -1144 -1031 c-845 -760 -1147 -1026 -1153 -1016 -4 8 -66 182 -137 387 -70 204 -185 536 -255 737 -70 201 -169 487 -220 635 -51 149 -151 434 -220 635 -289 832 -391 1128 -471 1360 -47 135 -126 361 -175 503 -50 142 -88 265 -85 274 4 8 0 21 -8 27 -14 10 -53 118 -232 634 l-73 214 47 51 c50 54 526 571 812 882 91 99 192 209 226 245 34 36 298 324 589 640 290 316 537 585 549 597 20 21 25 22 81 13 33 -6 416 -66 850 -134 435 -68 1140 -179 1568 -247 l779 -122 556 556 556 556 -71 138 c-40 76 -76 139 -81 141 -5 1 -247 -238 -538 -531 l-529 -534 -460 73 c-702 110 -2018 317 -2415 379 -195 30 -363 57 -372 59 -16 4 -186 -179 -1832 -1969 -324 -352 -606 -658 -628 -681 -36 -38 -38 -43 -27 -70 6 -16 70 -198 141 -404 72 -206 186 -536 254 -732 68 -197 180 -519 248 -715 243 -701 389 -1122 481 -1388 95 -274 245 -708 472 -1360 68 -198 182 -526 253 -730 209 -602 227 -656 234 -662 4 -4 25 11 49 34 36 35 2418 2177 2472 2223 19 17 36 16 335 -16 173 -18 540 -56 815 -84 275 -28 826 -85 1225 -126 399 -41 744 -73 767 -72 40 3 85 42 1208 1053 655 589 1176 1051 1188 1053 24 3 342 -28 1452 -143 1119 -116 1927 -196 1930 -193 1 2 -30 109 -70 238 -70 225 -176 571 -465 1515 -72 237 -176 574 -230 750 -54 176 -157 512 -229 748 -72 235 -190 619 -262 855 -72 235 -175 571 -229 747 -54 176 -162 527 -239 779 -78 253 -143 461 -145 463 -2 2 -377 78 -832 168 -456 91 -839 167 -851 170 -19 4 -29 -8 -77 -97z"/>
        <path d="M14024 10881 c-2 -2 -4 -46 -4 -98 0 -66 4 -95 13 -97 6 -3 73 -7 149 -10 l136 -6 7 95 c4 53 4 99 0 103 -7 8 -294 20 -301 13z"/>
        <path d="M13635 10875 c-5 -2 -59 -7 -119 -10 l-108 -7 6 -82 c11 -127 11 -126 60 -120 22 3 88 9 145 12 l104 7 -2 94 c-1 52 -5 99 -7 103 -5 8 -59 10 -79 3z"/>
        <path d="M13030 10799 c-125 -24 -230 -52 -230 -60 0 -10 41 -182 45 -186 2 -4 279 57 283 62 4 4 -10 97 -24 168 -6 29 -6 29 -74 16z"/>
        <path d="M12346 10612 c-71 -26 -131 -53 -133 -59 -7 -19 65 -178 79 -176 18 2 256 88 262 94 10 9 -55 189 -67 189 -7 -1 -70 -22 -141 -48z"/>
        <path d="M11885 10411 c-16 -10 -76 -44 -133 -75 -57 -32 -102 -61 -100 -64 17 -39 95 -155 105 -159 7 -3 19 -1 26 5 6 5 59 36 117 67 58 32 106 59 108 60 3 3 -87 186 -91 184 -1 0 -15 -9 -32 -18z"/>
        <path d="M10512 9173 c-15 -22 -90 -143 -138 -225 -3 -4 35 -30 83 -58 68 -40 90 -49 96 -38 4 7 39 63 77 123 37 61 66 113 63 118 -5 8 -149 107 -157 107 -2 0 -13 -12 -24 -27z"/>
        <path d="M10212 8643 c-12 -23 -112 -253 -112 -257 0 -5 182 -78 185 -74 2 2 30 62 63 134 l59 131 -83 41 c-96 48 -100 49 -112 25z"/>
        <path d="M9987 8083 c-3 -5 -23 -69 -46 -143 -28 -93 -37 -136 -29 -141 16 -10 178 -53 182 -48 12 14 86 273 79 279 -8 7 -162 60 -175 60 -4 0 -9 -3 -11 -7z"/>
        <path d="M9746 7390 c-33 -72 -57 -132 -55 -134 12 -11 157 -86 166 -86 12 0 121 226 125 258 3 21 -7 28 -81 58 -47 19 -88 34 -91 34 -3 0 -32 -59 -64 -130z"/>
        <path d="M3730 7179 c-24 -48 -41 -91 -38 -94 3 -3 63 -34 134 -69 l129 -64 36 72 c60 117 67 102 -84 178 l-134 66 -43 -89z"/>
        <path d="M9496 6969 c-16 -23 -56 -73 -89 -111 l-61 -71 74 -68 75 -69 34 38 c50 55 161 195 161 203 0 8 -133 107 -153 114 -7 3 -25 -14 -41 -36z"/>
        <path d="M4272 6910 l-41 -90 47 -20 c185 -83 233 -103 235 -99 8 10 78 181 75 183 -8 7 -260 116 -267 116 -4 0 -26 -40 -49 -90z"/>
        <path d="M4835 6683 c-19 -48 -34 -92 -31 -98 5 -15 268 -117 277 -108 12 14 70 176 64 181 -3 3 -42 20 -88 38 -45 17 -105 41 -134 52 l-51 21 -37 -86z"/>
        <path d="M9014 6517 l-121 -79 46 -84 c25 -46 51 -84 57 -84 23 0 254 154 254 170 0 4 -26 41 -58 82 l-57 75 -121 -80z"/>
        <path d="M5431 6542 c-16 -32 -64 -172 -60 -176 3 -2 201 -68 276 -91 8 -3 23 31 42 93 17 53 29 97 28 98 -1 1 -64 22 -140 47 -123 41 -138 44 -146 29z"/>
        <path d="M6002 6358 c-18 -47 -46 -168 -40 -173 12 -12 281 -76 288 -68 4 4 15 42 24 83 9 41 19 82 22 91 4 13 -18 22 -123 48 -71 18 -136 34 -145 37 -12 4 -21 -2 -26 -18z"/>
        <path d="M8500 6277 c-69 -21 -130 -41 -137 -43 -11 -3 -10 -12 28 -157 10 -37 12 -39 44 -33 47 9 248 75 258 85 8 8 -47 168 -62 182 -3 3 -62 -12 -131 -34z"/>
        <path d="M6580 6184 c-6 -33 -15 -76 -20 -97 -6 -27 -5 -40 4 -43 7 -3 74 -15 150 -28 96 -16 139 -20 141 -12 6 17 25 152 25 173 0 16 -16 21 -107 36 -60 9 -124 20 -145 23 l-36 6 -12 -58z"/>
        <path d="M7880 6156 l-105 -11 4 -95 c1 -52 5 -97 7 -99 9 -9 292 14 303 25 2 2 -2 46 -9 99 l-13 95 -41 -1 c-22 -1 -88 -7 -146 -13z"/>
        <path d="M7175 6093 c-3 -38 -8 -82 -11 -99 -6 -39 -3 -40 172 -49 l131 -7 6 47 c4 26 7 72 7 101 l0 53 -52 5 c-29 3 -97 8 -150 11 l-96 5 -7 -67z"/>
    </g>
</svg>