<svg width="60" height="60" viewBox="0 0 60 60" fill="none" xmlns="http://www.w3.org/2000/svg">
<path d="M25 50C21.5417 50 18.2917 49.3438 15.25 48.0312C12.2083 46.7188 9.5625 44.9375 7.3125 42.6875C5.0625 40.4375 3.28125 37.7917 1.96875 34.75C0.65625 31.7083 0 28.4583 0 25C0 18.5417 2.14583 12.9375 6.4375 8.1875C10.7292 3.4375 16.0833 0.75 22.5 0.125V7.625C18.1667 8.20833 14.5833 10.1458 11.75 13.4375C8.91667 16.7292 7.5 20.5833 7.5 25C7.5 29.875 9.19792 34.0104 12.5938 37.4062C15.9896 40.8021 20.125 42.5 25 42.5C27.6667 42.5 30.1979 41.9375 32.5938 40.8125C34.9896 39.6875 37.0417 38.0833 38.75 36L45.25 39.75C42.875 43 39.9167 45.5208 36.375 47.3125C32.8333 49.1042 29.0417 50 25 50ZM47.875 35.125L41.375 31.375C41.75 30.3333 42.0312 29.2812 42.2188 28.2188C42.4062 27.1562 42.5 26.0833 42.5 25C42.5 20.5833 41.0833 16.7292 38.25 13.4375C35.4167 10.1458 31.8333 8.20833 27.5 7.625V0.125C33.9167 0.75 39.2708 3.4375 43.5625 8.1875C47.8542 12.9375 50 18.5417 50 25C50 26.75 49.8438 28.4792 49.5312 30.1875C49.2188 31.8958 48.6667 33.5417 47.875 35.125Z" fill="white"/>
</svg>
