<svg
    version="1.0" 
    xmlns="http://www.w3.org/2000/svg"
    width="40.000000pt" 
    height="53.000000pt" 
    viewBox="0 0 40.000000 53.000000"
    preserveAspectRatio="xMidYMid meet">
    <g  transform="translate(0.000000,53.000000) scale(0.100000,-0.100000)"
        fill="#FFFFFF" 
        stroke="none">
        <path d="M114 386 c-19 -19 -34 -44 -34 -57 0 -23 1 -22 19 7 10 17 33 37 51 44 27 11 36 11 66 -4 24 -11 41 -13 52 -7 13 8 10 12 -19 30 -52 32 -94 28 -135 -13z"/>
        <path d="M225 335 c-58 -33 -79 -61 -43 -59 20 2 118 73 118 86 0 13 -12 9 -75 -27z m-35 -45 c0 -5 -4 -10 -10 -10 -5 0 -10 5 -10 10 0 6 5 10 10 10 6 0 10 -4 10 -10z"/>
        <path d="M282 328 c-18 -18 -14 -38 8 -38 13 0 20 7 20 19 0 25 -13 34 -28 19z"/>
    </g>
</svg>
