<svg width="46" height="48" viewBox="0 0 46 48" fill="none" xmlns="http://www.w3.org/2000/svg">
<path d="M34 47.5L30.5 44L34.4375 40L30.5 36.0625L34 32.5L38 36.5L41.9375 32.5L45.5 36.0625L41.5 40L45.5 44L41.9375 47.5L38 43.5625L34 47.5ZM8 42.5C8.70833 42.5 9.30208 42.2604 9.78125 41.7812C10.2604 41.3021 10.5 40.7083 10.5 40C10.5 39.2917 10.2604 38.6979 9.78125 38.2188C9.30208 37.7396 8.70833 37.5 8 37.5C7.29167 37.5 6.69792 37.7396 6.21875 38.2188C5.73958 38.6979 5.5 39.2917 5.5 40C5.5 40.7083 5.73958 41.3021 6.21875 41.7812C6.69792 42.2604 7.29167 42.5 8 42.5ZM8 47.5C5.91667 47.5 4.14583 46.7708 2.6875 45.3125C1.22917 43.8542 0.5 42.0833 0.5 40C0.5 37.9167 1.22917 36.1458 2.6875 34.6875C4.14583 33.2292 5.91667 32.5 8 32.5C9.54167 32.5 10.9479 32.9271 12.2188 33.7812C13.4896 34.6354 14.4167 35.7917 15 37.25C16.625 36.7917 17.9479 35.8958 18.9688 34.5625C19.9896 33.2292 20.5 31.7083 20.5 30V20C20.5 16.5417 21.7188 13.5938 24.1562 11.1562C26.5938 8.71875 29.5417 7.5 33 7.5H35.875L31.9375 3.5625L35.5 0L45.5 10L35.5 20L31.9375 16.5L35.875 12.5H33C30.9167 12.5 29.1458 13.2292 27.6875 14.6875C26.2292 16.1458 25.5 17.9167 25.5 20V30C25.5 33.0417 24.5208 35.7188 22.5625 38.0312C20.6042 40.3438 18.125 41.7708 15.125 42.3125C14.625 43.8542 13.7188 45.1042 12.4062 46.0625C11.0938 47.0208 9.625 47.5 8 47.5ZM4 17.5L0.5 14L4.4375 10L0.5 6.0625L4 2.5L8 6.5L11.9375 2.5L15.5 6.0625L11.5 10L15.5 14L11.9375 17.5L8 13.5625L4 17.5Z" fill="white"/>
</svg>
