<?xml version="1.0" encoding="utf-8"?><svg xml:space="preserve" viewBox="0 0 100 100" y="0" x="0" xmlns="http://www.w3.org/2000/svg" id="圖層_1" version="1.1" width="200px" height="200px" xmlns:xlink="http://www.w3.org/1999/xlink" style="width:100%;height:100%;background-size:initial;background-repeat-y:initial;background-repeat-x:initial;background-position-y:initial;background-position-x:initial;background-origin:initial;background-image:initial;background-color:rgb(255, 255, 255);background-clip:initial;background-attachment:initial;animation-play-state:paused" ><g class="ldl-scale" style="transform-origin:50% 50%;transform:rotate(0deg) scale(0.8, 0.8);animation-play-state:paused" ><circle stroke-miterlimit="10" stroke-width="8" stroke="#000" r="38" cy="50" cx="50" style="animation-play-state:paused" ></circle>
<g style="animation-play-state:paused" ><path fill="#fff" d="M54.9 28.4h-8.7c-1 0-1.8.8-1.8 1.8v7.6c0 1 .8 1.8 1.8 1.8h8.7c1 0 1.8-.8 1.8-1.8v-7.6c0-1-.8-1.8-1.8-1.8z" style="fill:rgb(255, 255, 255);animation-play-state:paused" ></path>
<path fill="#fff" d="M56.7 63V45.4c0-1-.8-1.8-1.8-1.8H42.7c-1 0-1.8.8-1.8 1.8V50c0 1 .8 1.8 1.8 1.8h2.9V63h-2.9c-1 0-1.8.8-1.8 1.8v5.1c0 1 .8 1.8 1.8 1.8h16.8c1 0 1.8-.8 1.8-1.8v-5.1c0-1-.8-1.8-1.8-1.8h-2.8z" style="fill:rgb(255, 255, 255);animation-play-state:paused" ></path></g>
<metadata xmlns:d="https://loading.io/stock/" style="animation-play-state:paused" ><d:name style="animation-play-state:paused" >information</d:name>
<d:tags style="animation-play-state:paused" >help,guide,indication,note,hint,tip,information,web application</d:tags>
<d:license style="animation-play-state:paused" >free</d:license>
<d:slug style="animation-play-state:paused" >bt460y</d:slug></metadata></g><!-- generated by https://loading.io/ --></svg>