<?xml version="1.0" standalone="no"?>
<!DOCTYPE svg PUBLIC "-//W3C//DTD SVG 20010904//EN"
 "http://www.w3.org/TR/2001/REC-SVG-20010904/DTD/svg10.dtd">
<svg version="1.0" xmlns="http://www.w3.org/2000/svg"
 width="200.000000pt" height="200.000000pt" viewBox="0 0 200.000000 200.000000"
 preserveAspectRatio="xMidYMid meet">

<g transform="translate(0.000000,200.000000) scale(0.100000,-0.100000)"
fill="#000000" stroke="none">
<path d="M754 1896 c-33 -15 -74 -60 -74 -82 0 -10 -13 -14 -39 -14 -23 0 -48
-8 -63 -19 -21 -17 -44 -20 -165 -23 -139 -3 -142 -4 -184 -33 -24 -17 -52
-46 -64 -65 -20 -34 -20 -50 -23 -713 -2 -452 1 -691 8 -717 13 -46 50 -94 94
-118 28 -15 78 -17 546 -17 283 0 527 3 542 7 40 12 89 57 109 103 15 33 19
66 19 195 l0 155 191 330 c105 182 196 342 201 357 21 59 -35 138 -97 138 -59
0 -79 -23 -186 -210 l-104 -180 -5 318 c-5 336 -7 350 -56 393 -49 43 -86 52
-224 57 -112 4 -139 8 -159 23 -13 11 -39 19 -58 19 -26 0 -36 5 -42 23 -13
35 -58 74 -92 81 -40 8 -38 8 -75 -8z m100 -47 c14 -11 29 -35 34 -52 8 -30
11 -32 63 -37 l54 -5 3 -53 c2 -31 -2 -60 -9 -68 -9 -11 -49 -14 -199 -14
-150 0 -190 3 -199 14 -7 8 -11 37 -9 68 l3 53 54 5 c52 5 55 7 63 37 10 39
51 73 88 73 15 0 39 -9 54 -21z m-276 -241 c23 -22 30 -23 229 -23 200 0 205
0 223 23 17 21 26 22 137 22 91 0 124 -4 141 -16 l22 -15 0 -421 0 -421 -64
-111 c-60 -103 -65 -117 -75 -201 -14 -116 -14 -112 10 -125 17 -10 29 -6 72
25 l52 36 3 -62 c5 -107 47 -99 -525 -99 -480 0 -494 1 -513 20 -20 20 -20 33
-20 685 0 652 0 665 20 685 18 18 33 20 142 20 112 0 124 -2 146 -22z m1118
-449 c52 -30 54 -33 41 -53 -7 -11 -93 -159 -191 -328 -98 -170 -183 -308
-189 -308 -7 0 -35 15 -63 33 l-51 32 190 328 c104 180 194 327 199 327 4 0
33 -14 64 -31z m-409 -695 c24 -14 41 -29 38 -34 -3 -4 -28 -25 -57 -45 l-51
-37 6 47 c4 26 7 58 7 71 0 30 3 30 57 -2z"/>
<path d="M780 1805 c-11 -13 -11 -19 3 -32 21 -21 49 -9 45 19 -4 28 -30 35
-48 13z"/>
<path d="M773 1470 c-15 -6 -23 -18 -23 -33 0 -14 -7 -30 -15 -37 -13 -10 -19
-10 -33 4 -24 21 -55 20 -75 -2 -21 -23 -21 -37 0 -73 20 -33 16 -39 -29 -48
-30 -6 -33 -11 -36 -45 -4 -42 8 -56 46 -56 29 0 39 -26 18 -49 -22 -25 -20
-44 9 -71 26 -24 26 -24 60 -6 38 21 55 15 55 -18 0 -31 18 -46 57 -46 34 0
36 3 47 53 7 30 36 37 56 12 18 -21 30 -19 62 12 l28 26 -21 33 c-23 38 -19
54 14 54 37 0 49 14 45 55 -3 34 -7 40 -35 47 -41 11 -48 23 -29 50 23 32 20
54 -10 77 -27 21 -27 21 -59 1 -36 -22 -55 -13 -55 27 0 16 -8 27 -26 33 -14
6 -26 10 -27 9 -1 0 -12 -4 -24 -9z m76 -155 c86 -44 50 -175 -48 -175 -47 0
-77 21 -91 64 -13 41 -2 75 36 105 31 25 64 27 103 6z"/>
<path d="M370 880 c-16 -16 -20 -33 -20 -90 0 -95 15 -110 110 -110 99 0 113
16 108 117 -4 93 -15 103 -110 103 -55 0 -72 -4 -88 -20z m158 -92 l3 -68 -71
0 -70 0 0 63 c0 35 3 67 7 71 4 4 34 6 68 4 l60 -3 3 -67z"/>
<path d="M712 843 c3 -17 23 -18 268 -18 229 0 265 2 265 15 0 13 -38 15 -268
18 -252 2 -268 1 -265 -15z"/>
<path d="M717 753 c-4 -3 -7 -12 -7 -20 0 -10 31 -13 145 -13 117 0 145 3 145
14 0 8 -7 17 -16 20 -21 8 -259 8 -267 -1z"/>
<path d="M370 510 c-16 -16 -20 -33 -20 -90 0 -95 15 -110 110 -110 94 0 110
15 110 104 0 49 -5 69 -21 90 -19 24 -27 26 -90 26 -56 0 -73 -4 -89 -20z
m158 -92 l3 -68 -71 0 -70 0 0 70 0 71 68 -3 67 -3 3 -67z"/>
<path d="M715 480 c-16 -26 14 -30 203 -30 191 0 232 6 218 29 -9 14 -412 15
-421 1z"/>
<path d="M717 383 c-4 -3 -7 -12 -7 -20 0 -10 30 -13 139 -13 136 0 175 9 140
31 -16 10 -262 12 -272 2z"/>
</g>
</svg>
