<svg width="489" height="59" viewBox="0 0 489 59" fill="none" xmlns="http://www.w3.org/2000/svg">
<path d="M278.136 3.18734L460.447 1.18536L487.63 28.0992L461.017 53.1298L278.707 55.1318L278.136 3.18734Z" fill="#008DCC"/>
<path d="M278.136 3.18734L460.447 1.18536L487.63 28.0992L461.017 53.1298L278.707 55.1318L278.136 3.18734Z" stroke="#FCC623"/>
<path d="M278.136 3.18734L460.447 1.18536L487.63 28.0992L461.017 53.1298L278.707 55.1318L278.136 3.18734Z" stroke="#008DCC"/>
<path d="M226.047 3.75936L408.358 1.75738L435.541 28.6712L408.928 53.7019L226.618 55.7038L226.047 3.75936Z" fill="#119432" stroke="#119432"/>
<path d="M133.632 4.77426L315.943 2.77227L343.126 29.6861L316.513 54.7168L134.203 56.7187L133.632 4.77426Z" fill="#FCC623" stroke="#FCC623"/>
<path d="M0.890247 6.2319L183.2 4.22992L210.384 31.1437L183.771 56.1744L1.46066 58.1764L0.890247 6.2319Z" fill="#FE1700" stroke="#FE1700"/>
</svg>
